<svg width="32" height="27" viewBox="0 0 32 27" fill="none" xmlns="http://www.w3.org/2000/svg">
<g filter="url(#filter0_d_1_637)">
<path fill-rule="evenodd" clip-rule="evenodd" d="M16.0009 12.0525L11.4653 16.5503C11.1291 16.8832 10.587 16.8832 10.2509 16.5503C10.0903 16.3916 10 16.1753 10 15.9496C10 15.7239 10.0903 15.5076 10.2509 15.3489L15.3928 10.2505C15.7286 9.91651 16.2714 9.91651 16.6072 10.2505L21.7491 15.3487C21.9097 15.5076 22 15.7239 22 15.9496C22 16.1753 21.9097 16.3916 21.7491 16.5505C21.4129 16.8832 20.8708 16.8832 20.5347 16.5501L16.0009 12.0525Z" fill="white"/>
<path d="M16.353 11.6975L16.001 11.3482L15.6488 11.6974L11.1134 16.195C10.9722 16.3349 10.744 16.3349 10.6027 16.195L10.6023 16.1946C10.5369 16.1299 10.5 16.0417 10.5 15.9496C10.5 15.8575 10.5369 15.7693 10.6023 15.7046L10.6029 15.704L15.7449 10.6055L15.7454 10.605C15.8861 10.465 16.1139 10.465 16.2546 10.605L16.2551 10.6055L21.3971 15.7038L21.3975 15.7042C21.4632 15.7692 21.5 15.8575 21.5 15.9496C21.5 16.0417 21.4632 16.13 21.3975 16.195L21.3974 16.1951C21.2561 16.3349 21.0281 16.3349 20.8869 16.1951C20.8868 16.195 20.8868 16.195 20.8868 16.195C20.8867 16.195 20.8867 16.195 20.8867 16.1949L16.353 11.6975Z" stroke="#D175B6"/>
</g>
<defs>
<filter id="filter0_d_1_637" x="0" y="0" width="32" height="26.8" filterUnits="userSpaceOnUse" color-interpolation-filters="sRGB">
<feFlood flood-opacity="0" result="BackgroundImageFix"/>
<feColorMatrix in="SourceAlpha" type="matrix" values="0 0 0 0 0 0 0 0 0 0 0 0 0 0 0 0 0 0 127 0" result="hardAlpha"/>
<feOffset/>
<feGaussianBlur stdDeviation="5"/>
<feComposite in2="hardAlpha" operator="out"/>
<feColorMatrix type="matrix" values="0 0 0 0 0.819608 0 0 0 0 0.458824 0 0 0 0 0.713726 0 0 0 1 0"/>
<feBlend mode="normal" in2="BackgroundImageFix" result="effect1_dropShadow_1_637"/>
<feBlend mode="normal" in="SourceGraphic" in2="effect1_dropShadow_1_637" result="shape"/>
</filter>
</defs>
</svg>
