<svg width="24" height="24" viewBox="0 0 24 24" fill="none" xmlns="http://www.w3.org/2000/svg">
<rect width="24" height="24" rx="12" transform="matrix(1 0 0 -1 0 24)" fill="white"/>
<path d="M11.647 14.3025L11.999 14.6518L12.3512 14.3026L16.8866 9.80499C17.0278 9.66508 17.256 9.66508 17.3973 9.80499L17.3977 9.80544C17.4631 9.87005 17.5 9.95829 17.5 10.0504C17.5 10.1425 17.4631 10.2307 17.3977 10.2954L17.3971 10.296L12.2551 15.3945L12.2546 15.395C12.1139 15.535 11.8861 15.535 11.7454 15.395L11.7449 15.3945L6.60293 10.2962L6.60252 10.2958C6.53684 10.2308 6.5 10.1425 6.5 10.0504C6.5 9.95835 6.53684 9.86996 6.60252 9.80499L6.6026 9.80492C6.74389 9.66509 6.97194 9.66512 7.11314 9.80492C7.11318 9.80495 7.11321 9.80499 7.11325 9.80503C7.11326 9.80504 7.11327 9.80505 7.11328 9.80506L11.647 14.3025Z" stroke="#D175B6"/>
</svg>
