<svg width="24" height="24" viewBox="0 0 24 24" fill="none" xmlns="http://www.w3.org/2000/svg">
<path d="M12.353 9.69749L12.001 9.34824L11.6488 9.69743L7.11342 14.195C6.97216 14.3349 6.744 14.3349 6.60274 14.195L6.60228 14.1946C6.53687 14.1299 6.5 14.0417 6.5 13.9496C6.5 13.8575 6.53687 13.7693 6.60228 13.7046L6.60294 13.704L11.7449 8.60552L11.7454 8.60497C11.8861 8.46501 12.1139 8.46501 12.2546 8.60497L12.2551 8.60553L17.3971 13.7038L17.3975 13.7042C17.4632 13.7692 17.5 13.8575 17.5 13.9496C17.5 14.0417 17.4632 14.13 17.3975 14.195L17.3974 14.1951C17.2561 14.3349 17.0281 14.3349 16.8869 14.1951C16.8868 14.195 16.8868 14.195 16.8868 14.195C16.8867 14.195 16.8867 14.195 16.8867 14.1949L12.353 9.69749Z" fill="white" stroke="white"/>
</svg>
