<svg width="103" height="108" viewBox="0 0 103 108" fill="none" xmlns="http://www.w3.org/2000/svg">
<g filter="url(#filter0_d_1_42)">
<path d="M53.8682 65.4923L53.8456 65.5081L53.8239 65.525C53.2921 65.9395 52.6691 66.2022 52.018 66.2979C51.6479 66.3452 51.2929 66.3451 50.9502 66.2984C50.2963 66.2031 49.6728 65.9403 49.1424 65.525L49.1187 65.5064L49.0939 65.4893C48.8077 65.2918 48.6422 65.0225 48.6044 64.7697C48.6316 64.7497 48.6768 64.7228 48.7453 64.6941C48.8167 64.6642 48.9011 64.6373 48.995 64.615C49.0031 64.6136 49.0243 64.6103 49.0625 64.6059C49.1116 64.6002 49.1756 64.5942 49.2549 64.5882C49.4136 64.5763 49.6157 64.5659 49.851 64.5573C50.3206 64.5403 50.899 64.5315 51.4816 64.5315C52.0642 64.5315 52.6426 64.5403 53.1122 64.5573C53.3475 64.5659 53.5496 64.5763 53.7083 64.5882C53.7876 64.5942 53.8516 64.6002 53.9007 64.6059C53.9389 64.6103 53.9601 64.6136 53.9682 64.615C54.0621 64.6373 54.1465 64.6642 54.2179 64.6941C54.2864 64.7228 54.3316 64.7497 54.3588 64.7696C54.3209 65.0227 54.1552 65.293 53.8682 65.4923ZM58.0579 44.7768L58.0602 44.7797C59.004 45.995 59.4428 47.179 59.4428 49.1605V49.7285C59.4428 50.657 59.566 51.4509 59.8537 52.1916C60.1405 52.9298 60.5685 53.5575 61.0998 54.178L61.0997 54.178L61.109 54.1885C61.6206 54.7693 61.8334 55.5623 61.8334 56.6081C61.8334 57.5416 61.5317 58.4082 60.9367 59.1127C60.1012 60.0003 58.9223 60.5679 57.734 60.6661L57.7314 60.6663C55.6422 60.8444 53.5806 60.9917 51.5007 60.9917C49.4031 60.9917 47.3471 60.9029 45.2984 60.6692L45.2829 60.6674L45.2673 60.6661C44.0774 60.5678 42.8988 60 42.0648 59.113C41.4693 58.4078 41.1667 57.5409 41.1667 56.6081C41.1667 55.5637 41.3802 54.77 41.891 54.1886C42.4438 53.5625 42.8758 52.9304 43.1603 52.1868C43.4448 51.4433 43.5586 50.6494 43.5586 49.7285V49.1605C43.5586 47.137 44.0456 45.8942 45.0464 44.6453C46.5615 42.7951 49.0157 41.6667 51.4411 41.6667H51.5603C54.0434 41.6667 56.576 42.854 58.0579 44.7768Z" stroke="white" stroke-width="2" shape-rendering="crispEdges"/>
</g>
<circle cx="58.8335" cy="44.6667" r="4" fill="#D175B6"/>
<defs>
<filter id="filter0_d_1_42" x="0.166687" y="0.666748" width="102.667" height="106.667" filterUnits="userSpaceOnUse" color-interpolation-filters="sRGB">
<feFlood flood-opacity="0" result="BackgroundImageFix"/>
<feColorMatrix in="SourceAlpha" type="matrix" values="0 0 0 0 0 0 0 0 0 0 0 0 0 0 0 0 0 0 127 0" result="hardAlpha"/>
<feOffset/>
<feGaussianBlur stdDeviation="20"/>
<feComposite in2="hardAlpha" operator="out"/>
<feColorMatrix type="matrix" values="0 0 0 0 0 0 0 0 0 0.933333 0 0 0 0 0.772549 0 0 0 0.4 0"/>
<feBlend mode="normal" in2="BackgroundImageFix" result="effect1_dropShadow_1_42"/>
<feBlend mode="normal" in="SourceGraphic" in2="effect1_dropShadow_1_42" result="shape"/>
</filter>
</defs>
</svg>
